<?xml version="1.0" standalone="no"?>
<!DOCTYPE svg PUBLIC "-//W3C//DTD SVG 20010904//EN"
 "http://www.w3.org/TR/2001/REC-SVG-20010904/DTD/svg10.dtd">
<svg version="1.0" xmlns="http://www.w3.org/2000/svg"
 width="350.000000pt" height="350.000000pt" viewBox="0 0 350.000000 350.000000"
 preserveAspectRatio="xMidYMid meet">
<metadata>
Created by potrace 1.14, written by Peter Selinger 2001-2017
</metadata>
<g transform="translate(0.000000,350.000000) scale(0.100000,-0.100000)"
fill="#000000" stroke="none">
<path d="M2149 3365 c-72 -39 -139 -221 -139 -377 0 -32 -4 -48 -13 -48 -28 0
-157 -71 -232 -128 -44 -33 -177 -157 -295 -276 -118 -118 -238 -232 -267
-252 -112 -77 -245 -103 -328 -65 -22 10 -80 54 -128 99 -106 96 -143 116
-204 109 -56 -6 -107 -46 -151 -118 -106 -175 -107 -361 -3 -499 35 -46 155
-148 193 -163 22 -10 -27 -44 -95 -66 -34 -11 -107 -27 -162 -36 -103 -16
-133 -30 -169 -79 -29 -39 -29 -145 1 -201 41 -78 117 -167 187 -220 142 -106
259 -147 416 -147 125 0 211 20 350 82 142 63 130 65 130 -26 0 -279 115 -559
306 -747 63 -62 107 -87 152 -87 70 0 104 64 142 267 l23 122 71 -73 c184
-189 384 -258 532 -184 117 58 119 121 17 443 -66 209 -81 296 -63 380 13 63
85 210 243 494 166 300 231 477 244 661 l6 85 111 27 c149 37 286 104 318 156
29 47 31 121 3 177 -26 53 -160 186 -211 208 l-41 19 -7 92 c-15 224 -106 335
-272 336 -67 0 -179 -32 -265 -75 l-50 -26 -46 41 c-67 59 -175 110 -232 110
-25 -1 -58 -7 -72 -15z m139 -94 c20 -11 57 -33 80 -51 l44 -32 -166 -99 c-91
-54 -167 -99 -169 -99 -7 0 13 112 29 170 8 30 26 72 40 93 21 33 29 37 65 37
22 0 56 -9 77 -19z m601 -76 c9 -27 14 -88 14 -190 1 -204 -21 -309 -142 -680
-54 -165 -110 -338 -125 -385 -16 -50 -113 -258 -237 -505 -122 -245 -215
-445 -224 -480 -30 -119 -11 -249 55 -394 18 -39 30 -74 27 -77 -9 -9 -92 44
-149 94 -58 53 -109 128 -136 199 -17 46 -19 48 -67 55 -62 9 -77 0 -105 -59
-48 -103 -140 -431 -140 -501 0 -12 -4 -24 -10 -27 -15 -9 -95 76 -151 162
-120 185 -157 307 -166 551 -6 170 -12 192 -53 192 -10 0 -30 6 -44 14 -29 15
-29 14 -171 -24 -94 -25 -193 -29 -326 -13 -116 14 -217 53 -317 123 -75 53
-113 92 -143 151 l-19 39 22 4 c13 3 70 14 128 25 67 13 129 32 175 55 81 40
162 117 171 162 5 28 1 36 -38 70 -104 92 -156 153 -187 216 -31 63 -33 72
-30 155 3 72 9 99 33 148 16 33 30 61 32 63 6 9 53 -26 128 -96 119 -110 156
-127 281 -127 95 0 104 2 178 37 110 53 171 103 346 287 250 263 386 368 547
421 54 18 98 39 103 49 5 9 79 58 163 108 315 186 401 224 498 220 l65 -2 14
-40z m371 -555 c16 -26 30 -55 30 -64 0 -10 -16 -34 -35 -53 l-35 -35 -30 37
c-35 44 -40 99 -14 160 15 36 16 36 34 20 11 -10 33 -39 50 -65z"/>
<path d="M1565 2291 c-61 -28 -87 -62 -93 -120 -2 -28 -11 -56 -18 -62 -21
-18 -17 -54 11 -88 54 -63 166 -68 234 -10 41 35 81 111 81 151 -1 36 -35 102
-65 126 -34 27 -94 28 -150 3z m49 -57 c33 -32 8 -84 -39 -84 -48 0 -53 62 -7
89 23 14 28 13 46 -5z"/>
<path d="M2268 1910 c-26 -16 -69 -94 -69 -126 -2 -104 3 -132 24 -152 28 -26
70 -42 110 -42 57 0 157 122 157 191 0 42 -34 99 -70 116 -37 17 -132 25 -152
13z m76 -72 c13 -19 14 -25 2 -43 -26 -40 -86 -27 -86 19 0 47 57 63 84 24z"/>
<path d="M1395 1904 c-85 -22 -168 -80 -203 -143 -27 -49 -46 -145 -39 -203
19 -157 215 -362 402 -420 96 -30 226 -29 309 2 114 43 188 146 171 236 -9 52
-71 111 -122 119 -194 28 -225 55 -245 214 -12 96 -42 145 -104 173 -46 20
-132 31 -169 22z m246 -335 c7 -17 34 -53 61 -80 l48 -48 -22 -15 c-42 -30
-102 -15 -155 37 -43 41 -42 68 5 106 20 17 40 30 43 31 4 0 12 -14 20 -31z"/>
</g>
</svg>
